<?xml version="1.0"?>
<svg xmlns="http://www.w3.org/2000/svg" viewBox="0 0 60 60" width="512" height="512"><g id="_9-Artwork" data-name="9-Artwork"><path d="M30,8a4,4,0,1,1,4-4A4,4,0,0,1,30,8Zm0-6a2,2,0,1,0,2,2A2,2,0,0,0,30,2Z"/><path d="M55,52H5a1,1,0,0,1,0-2H55a1,1,0,0,1,0,2Z"/><path d="M30,60a1,1,0,0,1-1-1V51a1,1,0,0,1,2,0v8A1,1,0,0,1,30,60Z"/><path d="M14,60a1,1,0,0,1-.707-1.707l8-8a1,1,0,0,1,1.414,1.414l-8,8A1,1,0,0,1,14,60Z"/><path d="M46,60a1,1,0,0,1-.707-.293l-8-8a1,1,0,0,1,1.414-1.414l8,8A1,1,0,0,1,46,60Z"/><path d="M53,48H7a5.006,5.006,0,0,1-5-5V11A5.006,5.006,0,0,1,7,6H53a5.006,5.006,0,0,1,5,5V43A5.006,5.006,0,0,1,53,48ZM7,8a3,3,0,0,0-3,3V43a3,3,0,0,0,3,3H53a3,3,0,0,0,3-3V11a3,3,0,0,0-3-3Z"/><path d="M57,33H3a1,1,0,0,1,0-2H57a1,1,0,0,1,0,2Z"/><path d="M39,33a1,1,0,0,1-1-1,8,8,0,0,0-16,0,1,1,0,0,1-2,0,10,10,0,0,1,20,0A1,1,0,0,1,39,33Z"/><circle cx="30" cy="19" r="1"/><circle cx="38" cy="21" r="1"/><circle cx="22" cy="21" r="1"/><circle cx="42" cy="27" r="1"/><circle cx="18" cy="27" r="1"/><path d="M25,39a4.527,4.527,0,0,1-3.125-1.219,2.641,2.641,0,0,0-3.75,0A4.527,4.527,0,0,1,15,39a1,1,0,0,1,0-2,2.583,2.583,0,0,0,1.875-.781,4.615,4.615,0,0,1,6.25,0A2.583,2.583,0,0,0,25,37a1,1,0,0,1,0,2Z"/><path d="M19,41a4.527,4.527,0,0,1-3.125-1.219,2.641,2.641,0,0,0-3.75,0A4.527,4.527,0,0,1,9,41a1,1,0,0,1,0-2,2.583,2.583,0,0,0,1.875-.781,4.615,4.615,0,0,1,6.25,0A2.583,2.583,0,0,0,19,39a1,1,0,0,1,0,2Z"/><path d="M48,40a4.527,4.527,0,0,1-3.125-1.219,2.641,2.641,0,0,0-3.75,0A4.527,4.527,0,0,1,38,40a1,1,0,0,1,0-2,2.583,2.583,0,0,0,1.875-.781,4.615,4.615,0,0,1,6.25,0A2.583,2.583,0,0,0,48,38a1,1,0,0,1,0,2Z"/><path d="M43,42a4.527,4.527,0,0,1-3.125-1.219,2.641,2.641,0,0,0-3.75,0A4.527,4.527,0,0,1,33,42a1,1,0,0,1,0-2,2.583,2.583,0,0,0,1.875-.781,4.615,4.615,0,0,1,6.25,0A2.583,2.583,0,0,0,43,40a1,1,0,0,1,0,2Z"/><circle cx="28" cy="38" r="1"/><circle cx="46" cy="43" r="1"/></g></svg>
