<?xml version="1.0" encoding="iso-8859-1"?>
<!-- Generator: Adobe Illustrator 19.0.0, SVG Export Plug-In . SVG Version: 6.00 Build 0)  -->
<svg version="1.1" id="Capa_1" xmlns="http://www.w3.org/2000/svg" xmlns:xlink="http://www.w3.org/1999/xlink" x="0px" y="0px"
	 viewBox="0 0 512.003 512.003" style="enable-background:new 0 0 512.003 512.003;" xml:space="preserve">
<g>
	<g>
		<path d="M117.878,318.825c-26.985,0-48.938,21.954-48.938,48.938c0,26.985,21.954,48.938,48.938,48.938
			s48.938-21.954,48.938-48.938C166.816,340.778,144.862,318.825,117.878,318.825z M117.878,401.701
			c-18.714,0-33.938-15.225-33.938-33.938c0-18.713,15.225-33.938,33.938-33.938s33.938,15.225,33.938,33.938
			C151.816,386.477,136.591,401.701,117.878,401.701z"/>
	</g>
</g>
<g>
	<g>
		<path d="M95.313,196.725c-26.985,0-48.938,21.954-48.938,48.938c0,26.984,21.954,48.938,48.938,48.938
			s48.938-21.954,48.938-48.938C144.251,218.679,122.298,196.725,95.313,196.725z M95.313,279.602
			c-18.714,0-33.938-15.225-33.938-33.938c0-18.714,15.225-33.938,33.938-33.938c18.713,0,33.938,15.225,33.938,33.938
			S114.027,279.602,95.313,279.602z"/>
	</g>
</g>
<g>
	<g>
		<path d="M211.685,133.954c-35.073,0-59.165,37.945-44.292,69.702c8.02,17.127,25.427,28.194,44.346,28.194
			c20.406,0,39.051-13.131,45.987-32.285C269.108,168.132,244.98,133.954,211.685,133.954z M243.623,194.457
			c-4.805,13.268-17.765,22.393-31.883,22.393c-13.125,0-25.199-7.676-30.762-19.555c-3.845-8.21-4.263-17.425-1.176-25.949
			c4.79-13.226,17.811-22.392,31.883-22.392C234.787,148.954,251.501,172.702,243.623,194.457z"/>
	</g>
</g>
<g>
	<g>
		<path d="M446.495,139.519c4.174-8.461,6.562-17.922,7.096-28.333l0.023-0.448c1.037-21.358-6.505-41.909-20.692-56.382
			c-11.411-11.641-19.786-24.509-24.893-38.246c-3.432-9.231-11.602-15.196-20.815-15.196c-5.414-0.001-10.675,2.128-14.816,5.993
			c-17.401,16.244-38.263,43.697-43.818,84.842c-23.273-4.378-47.418-6.602-71.902-6.602c-61.212,0-117.961,13.26-164.112,38.347
			c-3.639,1.978-4.985,6.532-3.007,10.171c1.978,3.639,6.531,4.986,10.171,3.007c43.959-23.895,98.231-36.525,156.948-36.525
			c24.079,0,47.803,2.226,70.62,6.62c-0.162,6.004,0.341,12.018,1.617,17.889c0.08,0.368,0.15,0.739,0.236,1.104
			c-9.902,2.536-18.893,8.125-25.505,16.058c-8.369,10.041-12.328,22.74-11.147,35.758c2.255,24.843,23.752,44.511,48.705,44.511
			c4.345,0,8.682-0.605,12.87-1.741c2.405,12.292,5.829,25.502,10.689,38.862c-0.015,0.041-0.03,0.081-0.045,0.122
			c-1.18,3.25-2.25,6.537-3.22,9.855c-8.659,29.575-12.996,72.237-11.635,116.285c-34.165,10.005-71.258,15.278-107.671,15.278
			c0,0-0.299,0-0.32,0c-17.169,0-29.947,16.964-25.053,33.46c0.743,2.501,1.576,4.998,2.458,7.641
			c6.345,19.015,11.825,35.437-12.746,48.8c-6.966,3.788-14.513,5.46-22.391,5.46c-40.668-0.001-90.151-44.555-113.925-72.543
			c-19.349-22.779-34.586-49.95-44.063-78.578c-9.591-28.971-13.079-58.897-10.086-86.544
			c4.718-43.588,25.032-80.203,58.747-105.885c3.295-2.51,3.931-7.216,1.421-10.511s-7.216-3.931-10.511-1.421
			C28.651,168.865,6.322,209.047,1.15,256.83c-6.529,60.316,15.015,126.278,57.63,176.447c7.228,8.509,33.406,37.861,66.792,58.302
			c21.186,12.971,40.982,19.511,58.604,19.51c10.701,0,20.603-2.413,29.52-7.262c35.611-19.367,26.101-47.867,19.808-66.725
			c-0.841-2.519-1.635-4.9-2.306-7.159c-2.102-7.08,3.416-14.151,10.688-14.194h0.305c36.598,0,73.869-5.147,108.427-14.904
			c2.398,39.134,9.41,74.021,20.715,90.629c6.785,9.968,14.162,12.061,19.154,12.061s12.369-2.092,19.154-12.061
			c14.55-21.375,21.992-73.024,21.63-125.045c24.186-14.721,43.448-31.632,57.271-50.321c15.567-21.047,23.461-43.313,23.461-66.177
			C512.003,208.759,488.794,169.769,446.495,139.519z M341.203,207.087c-17.33,0-32.203-13.64-33.767-30.866
			c-1.533-16.892,10.22-32.863,26.836-36.285c0.257,0.514,0.522,1.023,0.779,1.537c1.343,2.52,2.859,4.931,4.51,7.259
			c2.652,3.741,5.718,7.287,9.077,10.413c-0.193,7.301-0.186,24.544,2.923,46.331C348.223,206.536,344.716,207.087,341.203,207.087z
			 M342.631,101.348c3.29-41.074,23.407-67.983,40.003-83.475c1.373-1.282,2.957-1.959,4.579-1.959
			c2.922-0.001,5.511,2.077,6.754,5.422c5.845,15.723,15.347,30.365,28.241,43.52c11.271,11.499,17.256,27.958,16.422,45.156
			l-0.02,0.393c-1.38,27.097-23.307,52.541-52.14,50.186C356.905,158.177,340.431,128.813,342.631,101.348z M363.668,169.582
			c4.584,2.264,9.413,3.929,14.424,4.951c4.855,0.991,9.847,1.387,14.797,1.146c8.399-0.408,16.899-2.663,24.424-6.503
			c-0.375,17.257-2.806,49.594-14.363,82.567h-24.927C366.552,219.016,364.071,186.931,363.668,169.582z M416.196,382.266
			c-1.157,45.997-8.597,85.55-18.955,100.768c-1.398,2.054-4.136,5.501-6.754,5.501c-2.618,0-5.356-3.447-6.754-5.501
			c-9.762-14.341-16.93-50.301-18.691-92.895c-0.553-13.228-0.555-26.478-0.074-39.709c1.263-33.017,5.834-62.915,13.029-83.687
			h24.981c7.945,22.951,12.768,57.333,13.325,95.535c0,0.041,0.009,0.081,0.01,0.123
			C416.399,368.931,416.365,375.564,416.196,382.266z M476.481,307.188c-11.23,15.184-26.515,29.178-45.536,41.708
			c-1.427-35.993-6.513-67.196-14.59-89.291c-0.048-0.132-0.096-0.264-0.144-0.395c16.456-45.239,16.466-88.77,16.107-100.67
			c1.487-1.4,2.92-2.864,4.281-4.387c0.185-0.207,1.738-2.041,1.758-2.027c37.882,27.292,58.645,61.809,58.645,97.805
			C497.002,269.514,490.098,288.779,476.481,307.188z"/>
	</g>
</g>
<g>
</g>
<g>
</g>
<g>
</g>
<g>
</g>
<g>
</g>
<g>
</g>
<g>
</g>
<g>
</g>
<g>
</g>
<g>
</g>
<g>
</g>
<g>
</g>
<g>
</g>
<g>
</g>
<g>
</g>
</svg>
