<svg id="Capa_1" enable-background="new 0 0 511.995 511.995" height="512" viewBox="0 0 511.995 511.995" width="512" xmlns="http://www.w3.org/2000/svg"><g><path d="m302.045 253.822 42.269-116.132c4.653-12.783 4.049-26.613-1.7-38.942s-15.955-21.681-28.738-26.334l-190.445-69.316c-12.784-4.652-26.614-4.049-38.941 1.7-12.329 5.75-21.681 15.956-26.334 28.739l-42.269 116.133c-13.638 37.47-9.565 78.493 11.175 112.549l41.568 68.261c7.695 12.636 19.589 22.382 33.492 27.442 7.195 2.619 14.784 3.93 22.375 3.93 7.078 0 14.157-1.14 20.92-3.424l75.721-25.571c37.78-12.757 67.269-41.564 80.907-79.035zm-161.426 90.394c-22.494 7.598-46.829-1.26-59.177-21.539l-41.569-68.261c-18.357-30.144-21.962-66.453-9.891-99.618l42.27-116.131c3.282-9.018 9.88-16.218 18.577-20.274 4.831-2.252 9.987-3.385 15.163-3.385 4.144 0 8.3.727 12.31 2.186l190.443 69.316c9.018 3.282 16.218 9.88 20.273 18.578s4.482 18.454 1.199 27.472l-42.269 116.132c-12.071 33.165-38.172 58.662-71.609 69.954z"/><path d="m211.508 236.606c-19.015 2.252-41.097-.736-62.171-8.406s-39.906-19.575-53.028-33.522c-1.89-2.009-4.729-2.819-7.394-2.108-2.665.71-4.725 2.825-5.364 5.508-8.548 35.858 11.143 72.413 45.803 85.028 8.176 2.976 16.568 4.396 24.839 4.396 26.791-.001 52.293-14.902 64.902-40.089 1.234-2.466 1.016-5.411-.569-7.667s-4.279-3.461-7.018-3.14zm-77.024 32.403c-23.02-8.378-37.717-30.063-37.917-53.592 13.335 11.056 29.796 20.383 47.641 26.878 17.844 6.495 36.45 9.93 53.772 10.033-15.279 17.896-40.477 25.06-63.496 16.681z"/><path d="m94.313 143.597c6.734-4.885 16.385-5.929 25.189-2.725 8.803 3.204 15.525 10.208 17.544 18.278.853 3.407 3.91 5.682 7.27 5.682.603 0 1.215-.073 1.826-.226 4.019-1.005 6.461-5.078 5.456-9.096-3.261-13.033-13.342-23.774-26.966-28.733-13.624-4.958-28.25-3.21-39.126 4.678-3.353 2.432-4.1 7.122-1.668 10.475s7.122 4.099 10.475 1.667z"/><path d="m260.422 195.119c-3.261-13.033-13.341-23.774-26.966-28.733-13.624-4.958-28.25-3.21-39.126 4.677-3.353 2.432-4.1 7.122-1.668 10.475 2.432 3.354 7.122 4.101 10.475 1.668 6.735-4.884 16.387-5.929 25.189-2.724 8.803 3.204 15.525 10.208 17.544 18.278.853 3.407 3.91 5.682 7.27 5.682.603 0 1.215-.073 1.826-.226 4.019-1.006 6.462-5.079 5.456-9.097z"/><path d="m96.144 114.657c.064-.029 6.511-2.909 17.444-4.073 10.062-1.072 26.122-.87 45.498 6.183.847.308 1.712.454 2.564.454 3.063 0 5.94-1.892 7.048-4.937 1.417-3.893-.59-8.196-4.482-9.613-43.231-15.735-73.125-2.208-74.375-1.625-3.74 1.744-5.351 6.173-3.626 9.922 1.724 3.749 6.169 5.392 9.929 3.689z"/><path d="m213.498 136.571c36.977 13.458 49.391 38.467 49.571 38.84 1.279 2.708 3.973 4.299 6.787 4.299 1.061 0 2.14-.227 3.165-.705 3.754-1.75 5.378-6.213 3.627-9.967-.583-1.251-14.788-30.827-58.02-46.563-3.89-1.417-8.196.591-9.613 4.483-1.416 3.893.591 8.196 4.483 9.613z"/><path d="m496.108 299.812-42.269-116.132c-9.605-26.389-38.887-40.042-65.276-30.439l-33.595 12.228c-3.892 1.417-5.899 5.721-4.482 9.613s5.719 5.897 9.613 4.482l33.595-12.228c18.616-6.777 39.274 2.857 46.05 21.473l42.269 116.132c12.071 33.165 8.466 69.474-9.891 99.618l-41.569 68.261c-12.349 20.278-36.684 29.135-59.177 21.539l-75.72-25.571c-33.438-11.292-59.539-36.79-71.61-69.954l-13.403-36.825c-1.417-3.893-5.721-5.9-9.613-4.483s-5.899 5.721-4.482 9.613l13.403 36.824c13.638 37.47 43.127 66.277 80.906 79.036l75.72 25.571c6.763 2.284 13.843 3.424 20.92 3.424 7.592 0 15.181-1.312 22.376-3.931 13.903-5.06 25.797-14.806 33.492-27.442l41.569-68.261c20.739-34.055 24.812-75.078 11.174-112.548z"/><path d="m312.317 441.672c.639.17 1.287.253 1.931.253 2.041 0 4.026-.834 5.463-2.361 13.122-13.947 31.954-25.853 53.028-33.522 21.075-7.67 43.154-10.654 62.171-8.406 2.731.318 5.434-.881 7.019-3.138s1.803-5.201.569-7.667c-16.502-32.963-55.083-48.31-89.741-35.693-34.66 12.615-54.351 49.169-45.803 85.028.638 2.681 2.698 4.796 5.363 5.506zm45.569-76.44c6.489-2.362 13.146-3.488 19.71-3.488 16.722 0 32.813 7.317 43.784 20.168-17.321.104-35.928 3.539-53.771 10.033-17.845 6.495-34.305 15.822-47.641 26.878.2-23.528 14.898-45.213 37.918-53.591z"/><path d="m305.701 299.374c-4.142.074-7.439 3.491-7.366 7.632.148 8.318-4.522 16.829-12.189 22.211-7.667 5.383-17.257 6.883-25.031 3.917-3.872-1.476-8.204.464-9.681 4.334s.464 8.204 4.334 9.681c4.432 1.691 9.116 2.521 13.845 2.521 8.664 0 17.475-2.788 25.151-8.177 11.867-8.33 18.808-21.323 18.569-34.754-.074-4.141-3.495-7.421-7.632-7.365z"/><path d="m386.946 306.648c1.335 0 2.683-.058 4.035-.174 14.445-1.247 26.971-8.998 33.508-20.734 2.016-3.619.716-8.187-2.903-10.202-3.62-2.015-8.187-.715-10.202 2.903-4.048 7.268-12.36 12.284-21.693 13.089-9.333.804-18.382-2.712-23.614-9.179-2.606-3.221-7.329-3.717-10.548-1.113-3.22 2.605-3.719 7.328-1.113 10.548 7.66 9.466 19.605 14.862 32.53 14.862z"/><path d="m422.155 251.189c-1.25-.583-31.144-14.109-74.375 1.625-3.892 1.417-5.899 5.721-4.482 9.613 1.109 3.045 3.985 4.937 7.048 4.937.852 0 1.718-.146 2.564-.454 19.375-7.052 35.438-7.253 45.498-6.183 10.819 1.152 17.245 3.984 17.44 4.071 3.749 1.726 8.19.102 9.936-3.643 1.749-3.753.125-8.215-3.629-9.966z"/></g></svg>