<?xml version="1.0" encoding="iso-8859-1"?>
<!-- Generator: Adobe Illustrator 19.0.0, SVG Export Plug-In . SVG Version: 6.00 Build 0)  -->
<svg version="1.1" id="Layer_1" xmlns="http://www.w3.org/2000/svg" xmlns:xlink="http://www.w3.org/1999/xlink" x="0px" y="0px"
	 viewBox="0 0 512 512" style="enable-background:new 0 0 512 512;" xml:space="preserve">
<g>
	<g>
		<path d="M252.079,253.522c-4.688-2.921-10.855-1.488-13.774,3.201l-3.352,5.38c-3.994,6.413-10.889,10.241-18.443,10.241h-11.716
			c-5.523,0-10,4.477-10,10s4.477,10,10,10h11.716c14.507,0,27.748-7.352,35.419-19.666l3.352-5.38
			C258.199,262.608,256.766,256.442,252.079,253.522z"/>
	</g>
</g>
<g>
	<g>
		<path d="M248.162,395.46c-2.773-4.775-8.893-6.398-13.668-3.626l-0.045,0.026c-4.776,2.773-6.377,8.88-3.604,13.655
			c1.854,3.192,5.213,4.97,8.663,4.97c1.712,0,3.446-0.438,5.029-1.357C249.311,406.355,250.935,400.236,248.162,395.46z"/>
	</g>
</g>
<g>
	<g>
		<path d="M377.439,491.999h-0.192c-5.523,0-10,4.477-10,10c0,5.523,4.477,10,10,10h0.192c5.523,0,10-4.477,10-10
			C387.438,496.476,382.961,491.999,377.439,491.999z"/>
	</g>
</g>
<g>
	<g>
		<path d="M337.659,272.257l8.296-8.958c7.846-8.471,12.167-19.493,12.167-31.039v-22.322c0-15.154-10.217-28.501-24.846-32.457
			l-41.485-11.218v-14.73c2.583-2.583,5.033-5.445,7.32-8.59c11.055-15.2,17.142-35.244,17.142-56.439
			c0-28.47-10.637-56.118-27.781-72.278c-10.869-11.703-30.293-16.61-52.087-13.129c-14.416,2.302-31.58,8.967-40.199,20.969
			c-15.68,2.355-27.654,10.406-33.29,22.579c-6.216,13.426-3.763,29.713,6.683,45.079c1.82,28.824,20.766,41.093,34.401,44.666
			c4.617,8.409,10.335,15.441,16.812,20.87v12.516l-63.713,29.846c-15.54,7.279-25.581,23.07-25.581,40.23v41.507
			c0,12.489,10.161,22.648,22.648,22.648h15.215l8.912,33.666c-4.945,12.377-22.145,57.21-22.145,81.996
			c0,20.552,17.264,54.467,28.48,74.33h-50.045c-5.523,0-10,4.477-10,10s4.477,10,10,10h213.557c5.523,0,10-4.477,10-10
			c0-5.523-4.477-10-10-10h-16.946c8.86-25.413,25.019-80.03,14.528-115.188c-5.021-16.827-23.383-42.746-30.223-52.043
			l3.845-42.017C326.303,281.204,332.738,277.569,337.659,272.257z M295.746,76.757c0.334,3.226,0.507,6.486,0.507,9.749
			c0,17.001-4.729,32.868-13.317,44.676c-7.89,10.849-18.075,16.823-28.681,16.823c-11.645,0-22.788-7.302-30.746-19.853
			c8.191-7.575,16.432-19.489,15.711-33.542c14.404-3.482,25.159-15.352,30.476-33.863
			C279.997,64.398,290.228,71.988,295.746,76.757z M218.619,79.747c-2.063,2.914-2.416,6.711-0.925,9.956
			c5.146,11.199-4.253,20.913-9.371,25.132c-6.134-1.792-18.496-7.967-18.877-28.67c-0.038-2.087-0.729-4.11-1.975-5.785
			c-7.475-10.046-9.817-20.008-6.426-27.333c3.092-6.68,11.052-10.907,21.838-11.599c3.71-0.238,6.983-2.515,8.496-5.911
			c2.429-5.455,12.882-12.252,28.16-14.692c3.502-0.559,6.929-0.831,10.203-0.831c10.594,0,19.571,2.843,24.205,7.962
			c0.191,0.211,0.392,0.415,0.601,0.609c5.093,4.74,9.49,11.04,12.967,18.308c-7.418-3.965-15.881-7.244-24.47-8.049
			c-5.246-0.483-9.968,3.166-10.806,8.364c-2.22,13.766-8.28,29.852-24.54,28.36C224.14,75.235,220.682,76.833,218.619,79.747z
			 M316.832,362.724c4.382,7.321,8.124,14.498,9.708,19.806c9.76,32.712-9.642,90.491-16.634,109.471h-82.375
			c53.261-26.881,74.895-66.134,83.542-96.267C314.484,383.845,316.152,372.597,316.832,362.724z M311.697,263.599h-42.076
			c-5.523,0-10,4.477-10,10c0,5.523,4.477,10,10,10h29.546l-3.872,42.312c-1.072,3.641-9.13,27.778-39.611,51.68
			c-4.346,3.408-5.107,9.694-1.699,14.039c3.408,4.347,9.695,5.106,14.039,1.699c12.485-9.791,21.752-19.682,28.594-28.65
			c-0.719,7.786-2.16,16.451-4.768,25.539c-11.99,41.779-42.288,72.506-90.087,91.442c-7.602-13.556-16.771-31.494-21.825-46.249
			c14.045-3.873,27.302-8.467,39.494-13.726c5.071-2.188,7.409-8.072,5.221-13.142c-2.188-5.072-8.073-7.408-13.143-5.221
			c-10.905,4.704-22.757,8.85-35.336,12.384c0.936-20.893,15.956-61.293,21.857-75.535c0.839-2.024,0.99-4.27,0.429-6.388
			l-18.07-68.265c-1.185-4.478-5.227-7.426-9.65-7.431c-0.327,0-0.655,0.016-0.985,0.048c-0.043,0.004-0.087,0.009-0.13,0.014
			c-0.237,0.026-0.474,0.059-0.712,0.103c-4.878,0.83-9.366,4.846-9.366,9.759v13.999h-5.401c-1.461,0-2.649-1.188-2.649-2.649
			v-41.507c0-9.436,5.521-18.117,14.065-22.12l66.154-30.989c5.513-2.583,9.076-8.186,9.076-14.273v-4.378
			c4.363,1.253,8.871,1.91,13.462,1.91c6.044,0,11.927-1.125,17.536-3.259v1.817c0,8.838,5.959,16.623,14.491,18.931l41.772,11.296
			c5.928,1.603,10.067,7.011,10.067,13.15v22.322c0,6.491-2.429,12.688-6.839,17.449l-8.296,8.957
			C320.084,261.801,315.969,263.599,311.697,263.599z"/>
	</g>
</g>
<g>
</g>
<g>
</g>
<g>
</g>
<g>
</g>
<g>
</g>
<g>
</g>
<g>
</g>
<g>
</g>
<g>
</g>
<g>
</g>
<g>
</g>
<g>
</g>
<g>
</g>
<g>
</g>
<g>
</g>
</svg>
